<svg width="30" height="30" viewBox="0 0 30 30" fill="none" xmlns="http://www.w3.org/2000/svg">
<rect width="30" height="30" rx="15" fill="#F2F1F1"/>
<path d="M19.881 7.5C20.2914 7.5 20.6851 7.67559 20.9753 7.98816C21.2655 8.30072 21.4286 8.72464 21.4286 9.16667V20.8333C21.4286 21.2754 21.2655 21.6993 20.9753 22.0118C20.6851 22.3244 20.2914 22.5 19.881 22.5H9.04762C8.63716 22.5 8.24352 22.3244 7.95329 22.0118C7.66305 21.6993 7.5 21.2754 7.5 20.8333V9.16667C7.5 8.72464 7.66305 8.30072 7.95329 7.98816C8.24352 7.67559 8.63716 7.5 9.04762 7.5H19.881ZM19.494 20.4167V16C19.494 15.2795 19.2283 14.5885 18.7552 14.079C18.2821 13.5696 17.6405 13.2833 16.9714 13.2833C16.3137 13.2833 15.5476 13.7167 15.1762 14.3667V13.4417H13.0173V20.4167H15.1762V16.3083C15.1762 15.6667 15.656 15.1417 16.2518 15.1417C16.5391 15.1417 16.8147 15.2646 17.0178 15.4834C17.221 15.7022 17.3351 15.9989 17.3351 16.3083V20.4167H19.494ZM10.5024 12.1333C10.8472 12.1333 11.1778 11.9858 11.4216 11.7233C11.6654 11.4607 11.8024 11.1046 11.8024 10.7333C11.8024 9.95833 11.222 9.325 10.5024 9.325C10.1555 9.325 9.82292 9.47338 9.57767 9.73749C9.33242 10.0016 9.19464 10.3598 9.19464 10.7333C9.19464 11.5083 9.78274 12.1333 10.5024 12.1333ZM11.578 20.4167V13.4417H9.43452V20.4167H11.578Z" fill="#0F52BA"/>
</svg>
