<svg width="32" height="32" viewBox="0 0 32 32" fill="none" xmlns="http://www.w3.org/2000/svg">
<path fill-rule="evenodd" clip-rule="evenodd" d="M16.3325 2.66663C22.3979 2.66663 27.3325 7.63863 27.3325 13.7506C27.3325 21.264 18.7245 28.6666 16.3325 28.6666C13.9405 28.6666 5.33252 21.264 5.33252 13.7506C5.33252 7.63863 10.2672 2.66663 16.3325 2.66663ZM16.3325 4.66663C11.3699 4.66663 7.33252 8.74263 7.33252 13.7506C7.33252 20.1226 14.8312 26.3306 16.3325 26.6613C17.8339 26.3293 25.3325 20.1213 25.3325 13.7506C25.3325 8.74263 21.2952 4.66663 16.3325 4.66663ZM16.3339 9.33329C18.7232 9.33329 20.6672 11.2773 20.6672 13.668C20.6672 16.0573 18.7232 18 16.3339 18C13.9445 18 12.0005 16.0573 12.0005 13.668C12.0005 11.2773 13.9445 9.33329 16.3339 9.33329ZM16.3339 11.3333C15.0472 11.3333 14.0005 12.38 14.0005 13.668C14.0005 14.9546 15.0472 16 16.3339 16C17.6205 16 18.6672 14.9546 18.6672 13.668C18.6672 12.38 17.6205 11.3333 16.3339 11.3333Z" fill="#172048"/>
</svg>
