<svg width="32" height="32" viewBox="0 0 32 32" fill="none" xmlns="http://www.w3.org/2000/svg">
<path fill-rule="evenodd" clip-rule="evenodd" d="M22.2117 2.66663C26.6517 2.66663 29.9997 6.28929 29.9997 11.0933V20.2506C29.9997 22.7093 29.1303 24.9306 27.5503 26.5066C26.133 27.9186 24.2943 28.6666 22.233 28.6666H9.09567C7.03834 28.6666 5.20101 27.92 3.78234 26.5066C2.20234 24.9306 1.33301 22.7093 1.33301 20.2506V11.0933C1.33301 6.28929 4.68101 2.66663 9.12101 2.66663H22.2117ZM22.2117 4.66663H9.12101C5.76767 4.66663 3.33301 7.36929 3.33301 11.0933V20.2506C3.33301 22.1746 3.99434 23.8933 5.19434 25.0893C6.22901 26.1226 7.57967 26.6666 9.09967 26.6666H22.2117C22.2143 26.664 22.225 26.6666 22.233 26.6666C23.7543 26.6666 25.1037 26.1226 26.1383 25.0893C27.3397 23.8933 27.9997 22.1746 27.9997 20.2506V11.0933C27.9997 7.36929 25.565 4.66663 22.2117 4.66663ZM24.313 10.8384C24.661 11.2664 24.5957 11.8957 24.1677 12.245L18.2423 17.061C17.493 17.6557 16.597 17.953 15.7023 17.953C14.8103 17.953 13.921 17.6584 13.177 17.069L7.19701 12.2477C6.76634 11.901 6.69967 11.2704 7.04501 10.841C7.39301 10.413 8.02234 10.345 8.45167 10.6904L14.4263 15.5064C15.177 16.101 16.2343 16.101 16.9903 15.501L22.905 10.693C23.3343 10.3424 23.9637 10.409 24.313 10.8384Z" fill="#172048"/>
</svg>
