<svg width="48" height="48" viewBox="0 0 48 48" fill="none" xmlns="http://www.w3.org/2000/svg">
<circle cx="24" cy="24" r="24" fill="white"/>
<path d="M13.7148 23C13.1626 23 12.7148 23.4477 12.7148 24C12.7148 24.5523 13.1626 25 13.7148 25V23ZM34.551 24.7071C34.9415 24.3166 34.9415 23.6834 34.551 23.2929L28.187 16.9289C27.7965 16.5384 27.1633 16.5384 26.7728 16.9289C26.3823 17.3195 26.3823 17.9526 26.7728 18.3431L32.4297 24L26.7728 29.6569C26.3823 30.0474 26.3823 30.6805 26.7728 31.0711C27.1633 31.4616 27.7965 31.4616 28.187 31.0711L34.551 24.7071ZM13.7148 25H33.8439V23H13.7148V25Z" fill="#232536"/>
</svg>
