<svg width="151" height="30" viewBox="0 0 151 30" fill="none" xmlns="http://www.w3.org/2000/svg">
<path d="M0 15C0 6.71573 6.71573 0 15 0C23.2843 0 30 6.71573 30 15C30 23.2843 23.2843 30 15 30C6.71573 30 0 23.2843 0 15Z" fill="#F2F1F1"/>
<path d="M11.8187 14.7273C11.8187 13.1207 13.1207 11.8179 14.7273 11.8179C16.3339 11.8179 17.6366 13.1207 17.6366 14.7273C17.6366 16.3339 16.3339 17.6366 14.7273 17.6366C13.1207 17.6366 11.8187 16.3339 11.8187 14.7273ZM10.2459 14.7273C10.2459 17.2024 12.2522 19.2086 14.7273 19.2086C17.2024 19.2086 19.2086 17.2024 19.2086 14.7273C19.2086 12.2522 17.2024 10.2459 14.7273 10.2459C12.2522 10.2459 10.2459 12.2522 10.2459 14.7273ZM18.3387 10.0683C18.3387 10.6463 18.8075 11.1158 19.3863 11.1158C19.9643 11.1158 20.4338 10.6463 20.4338 10.0683C20.4338 9.4902 19.965 9.02141 19.3863 9.02141C18.8075 9.02141 18.3387 9.4902 18.3387 10.0683ZM11.2011 21.831C10.3502 21.7923 9.8878 21.6506 9.58044 21.5307C9.17298 21.3721 8.88254 21.1832 8.57659 20.878C8.27135 20.5727 8.08172 20.2823 7.92381 19.8748C7.80397 19.5675 7.66227 19.105 7.6235 18.2541C7.5812 17.3342 7.57274 17.0578 7.57274 14.7273C7.57274 12.3967 7.58191 12.1211 7.6235 11.2004C7.66227 10.3495 7.80467 9.8878 7.92381 9.57973C8.08242 9.17227 8.27135 8.88183 8.57659 8.57588C8.88183 8.27064 9.17227 8.08101 9.58044 7.9231C9.8878 7.80326 10.3502 7.66157 11.2011 7.62279C12.1211 7.5805 12.3974 7.57204 14.7273 7.57204C17.0578 7.57204 17.3335 7.5812 18.2541 7.62279C19.105 7.66157 19.5667 7.80397 19.8748 7.9231C20.2823 8.08101 20.5727 8.27064 20.8787 8.57588C21.1839 8.88113 21.3728 9.17227 21.5314 9.57973C21.6513 9.88709 21.793 10.3495 21.8318 11.2004C21.8741 12.1211 21.8825 12.3967 21.8825 14.7273C21.8825 17.0571 21.8741 17.3335 21.8318 18.2541C21.793 19.105 21.6506 19.5675 21.5314 19.8748C21.3728 20.2823 21.1839 20.5727 20.8787 20.878C20.5734 21.1832 20.2823 21.3721 19.8748 21.5307C19.5675 21.6506 19.105 21.7923 18.2541 21.831C17.3342 21.8733 17.0578 21.8818 14.7273 21.8818C12.3974 21.8818 12.1211 21.8733 11.2011 21.831ZM11.1292 6.05287C10.2001 6.09517 9.56563 6.2425 9.01084 6.45822C8.43701 6.68098 7.95059 6.97988 7.46488 7.46488C6.97988 7.94989 6.68098 8.43631 6.45822 9.01084C6.2425 9.56563 6.09517 10.2001 6.05287 11.1292C6.00987 12.0597 6 12.3572 6 14.7273C6 17.0973 6.00987 17.3948 6.05287 18.3253C6.09517 19.2545 6.2425 19.8889 6.45822 20.4437C6.68098 21.0175 6.97917 21.5047 7.46488 21.9897C7.94989 22.4747 8.43631 22.7729 9.01084 22.9963C9.56634 23.212 10.2001 23.3594 11.1292 23.4017C12.0604 23.444 12.3572 23.4545 14.7273 23.4545C17.098 23.4545 17.3948 23.4447 18.3253 23.4017C19.2545 23.3594 19.8889 23.212 20.4437 22.9963C21.0175 22.7729 21.504 22.4747 21.9897 21.9897C22.4747 21.5047 22.7729 21.0175 22.9963 20.4437C23.212 19.8889 23.3601 19.2545 23.4017 18.3253C23.444 17.3941 23.4538 17.0973 23.4538 14.7273C23.4538 12.3572 23.444 12.0597 23.4017 11.1292C23.3594 10.2001 23.212 9.56563 22.9963 9.01084C22.7729 8.43701 22.4747 7.95059 21.9897 7.46488C21.5047 6.97988 21.0175 6.68098 20.4444 6.45822C19.8889 6.2425 19.2545 6.09446 18.326 6.05287C17.3955 6.01057 17.098 6 14.728 6C12.3572 6 12.0604 6.00987 11.1292 6.05287Z" fill="#0F52BA"/>
<path d="M40 15C40 6.71573 46.7157 0 55 0C63.2843 0 70 6.71573 70 15C70 23.2843 63.2843 30 55 30C46.7157 30 40 23.2843 40 15Z" fill="#F2F1F1"/>
<path d="M63.4545 14.7273C63.4545 9.90734 59.5472 6 54.7273 6C49.9073 6 46 9.90734 46 14.7273C46 18.9603 49.0138 22.4895 53.0127 23.2862V16.6415H51.5894V14.2687H53.0127V12.8444C53.0127 10.9087 53.8162 9.75781 56.0995 9.75781H58.0004V12.1308H56.8122C55.9233 12.1308 55.8645 12.4622 55.8645 13.081L55.8613 14.2686H58.0137L57.7618 16.6411H55.8613V23.3815C60.1455 22.8256 63.4545 19.1629 63.4545 14.7273Z" fill="#0F52BA"/>
<path d="M80 15C80 6.71573 86.7157 0 95 0C103.284 0 110 6.71573 110 15C110 23.2843 103.284 30 95 30C86.7157 30 80 23.2843 80 15Z" fill="#F2F1F1"/>
<path d="M95.5591 21.6418L91.8032 21.5731C90.5871 21.5492 89.368 21.5969 88.1758 21.3491C86.3621 20.9787 86.2337 19.1628 86.0992 17.6396C85.9139 15.4981 85.9857 13.3178 86.3353 11.1942C86.5326 10.0027 87.3093 9.29166 88.5104 9.21428C92.5651 8.93349 96.6467 8.96677 100.692 9.09777C101.12 9.10978 101.55 9.17542 101.971 9.25013C104.051 9.61452 104.102 11.6724 104.236 13.4047C104.371 15.1549 104.314 16.9141 104.057 18.6524C103.851 20.0916 103.457 21.2985 101.792 21.4151C99.7063 21.5674 97.6685 21.6901 95.577 21.651C95.577 21.6418 95.565 21.6418 95.5591 21.6418ZM93.351 17.998C94.9227 17.0959 96.4644 16.2089 98.0272 15.3129C96.4525 14.4109 94.9137 13.5239 93.351 12.6279V17.998Z" fill="#0F52BA"/>
<path d="M121 15C121 6.71573 127.716 0 136 0C144.284 0 151 6.71573 151 15C151 23.2843 144.284 30 136 30C127.716 30 121 23.2843 121 15Z" fill="#F2F1F1"/>
<path d="M132.661 22.6341C139.454 22.6341 143.168 17.0045 143.168 12.1227C143.168 11.9629 143.165 11.8037 143.158 11.6452C143.881 11.122 144.504 10.4742 145 9.73217C144.338 10.0265 143.626 10.2245 142.879 10.3138C143.642 9.85649 144.227 9.13294 144.503 8.27048C143.778 8.70068 142.985 9.00395 142.158 9.16722C141.484 8.44912 140.525 8 139.462 8C137.423 8 135.769 9.65446 135.769 11.6938C135.769 11.9838 135.802 12.2657 135.865 12.5362C132.796 12.3817 130.074 10.9116 128.253 8.67632C127.925 9.24011 127.752 9.88087 127.753 10.5332C127.753 11.8149 128.405 12.9464 129.396 13.6084C128.81 13.5904 128.236 13.432 127.723 13.1463C127.723 13.1618 127.723 13.1769 127.723 13.1935C127.723 14.9826 128.996 16.4764 130.686 16.8149C130.368 16.9014 130.041 16.9451 129.712 16.9449C129.474 16.9449 129.243 16.9215 129.018 16.8783C129.488 18.3462 130.851 19.4144 132.468 19.4442C131.204 20.4353 129.611 21.0256 127.881 21.0256C127.587 21.0258 127.292 21.0088 127 20.9744C128.634 22.0224 130.575 22.6341 132.661 22.6341Z" fill="#0F52BA"/>
</svg>
